<svg width="19" height="20" viewBox="0 0 19 20" fill="none" xmlns="http://www.w3.org/2000/svg">
<path d="M18.7682 0.731793C18.6197 0.583376 18.4184 0.5 18.2085 0.5C17.9986 0.5 17.7972 0.583376 17.6488 0.731793L9.5 8.88056L1.35123 0.731793C1.20277 0.583376 1.00144 0.5 0.791512 0.5C0.581586 0.5 0.380255 0.583376 0.231793 0.731793C0.0833762 0.880255 0 1.08159 0 1.29151C0 1.50144 0.0833762 1.70277 0.231793 1.85123L8.38056 10L0.231793 18.1488C0.0833762 18.2972 0 18.4986 0 18.7085C0 18.9184 0.0833762 19.1197 0.231793 19.2682C0.380255 19.4166 0.581586 19.5 0.791512 19.5C1.00144 19.5 1.20277 19.4166 1.35123 19.2682L9.5 11.1194L17.6488 19.2682C17.7972 19.4166 17.9986 19.5 18.2085 19.5C18.4184 19.5 18.6197 19.4166 18.7682 19.2682C18.9166 19.1197 19 18.9184 19 18.7085C19 18.4986 18.9166 18.2972 18.7682 18.1488L10.6194 10L18.7682 1.85123C18.9166 1.70277 19 1.50144 19 1.29151C19 1.08159 18.9166 0.880255 18.7682 0.731793Z" fill="black"/>
</svg>
