<svg width="512" height="512" viewBox="0 0 512 512" fill="none" xmlns="http://www.w3.org/2000/svg">
<path d="M418.495 308.531C418.738 351.464 407.446 394.778 377.23 426.502C350.287 454.788 312.083 469.015 273.731 472.257C234.293 475.592 193.155 468.561 159.5 446.993C125.11 424.956 104.541 388.686 96.9739 349.153C93.1509 329.179 92.0309 308.092 95.5339 287.994C98.6829 269.922 104.874 252.392 112.294 235.665C128.651 198.791 151.233 164.735 175.348 132.533C200.308 99.201 227.546 66.911 257.125 37.542C254.768 37.542 252.411 37.542 250.054 37.542C287.598 73.541 321.954 113.883 352.196 156.133C369.61 180.462 385.621 205.977 398.339 233.096C409.361 256.605 418.155 282.327 418.495 308.531C418.579 314.974 428.579 314.982 428.495 308.531C428.018 271.782 412.514 236.374 395.045 204.729C375.657 169.608 351.648 137.074 326.226 106.12C304.603 79.791 281.739 54.071 257.125 30.471C255.154 28.581 252.018 28.521 250.054 30.471C213.109 67.154 179.51 108.149 149.837 150.857C127.135 183.532 106.429 218.474 93.5129 256.271C80.3449 294.808 80.6669 336.138 93.2209 374.909C105.4 412.521 131.19 443.949 166.178 462.469C201.71 481.278 243.993 486.203 283.525 481.23C322.01 476.389 359.066 460.518 385.86 431.925C415.501 400.294 427.666 357.203 428.474 314.649C428.513 312.611 428.507 310.572 428.495 308.533C428.459 302.085 418.459 302.081 418.495 308.531Z" fill="white"/>
<path d="M236.644 273.636C236.017 289.937 211.999 289.936 211.372 273.636C211.099 266.541 217.322 261.258 224.009 261C231.102 260.727 236.386 266.948 236.644 273.636C236.892 280.063 246.893 280.087 246.644 273.636C246.157 260.976 236.669 251.488 224.009 251C211.36 250.513 201.831 261.707 201.372 273.636C200.885 286.285 212.081 295.813 224.009 296.272C236.658 296.759 246.185 285.564 246.644 273.636C246.892 267.185 236.891 267.209 236.644 273.636ZM303.803 340.796C303.175 357.099 279.16 357.099 278.532 340.796C278.259 333.702 284.481 328.42 291.168 328.162C298.261 327.889 303.545 334.109 303.803 340.796C304.05 347.223 314.051 347.247 313.803 340.796C313.316 328.136 303.827 318.65 291.168 318.162C278.52 317.675 268.991 328.868 268.532 340.796C268.045 353.446 279.238 362.975 291.168 363.434C303.818 363.921 313.344 352.725 313.803 340.796C314.051 334.345 304.05 334.369 303.803 340.796ZM196.533 364.118C191.842 372.495 199.996 381.328 208.161 383.362C213.246 384.629 216.846 381.154 219.592 377.504C225.055 370.243 230.517 362.983 235.98 355.723C254.787 330.725 273.594 305.727 292.402 280.729C298.98 271.985 305.559 263.241 312.138 254.496C313.241 253.03 314.344 251.563 315.448 250.097C321.234 242.406 312.425 235.077 306.29 231.642C297.477 226.707 291.23 238.249 286.916 243.983C279.306 254.098 271.696 264.213 264.086 274.328C241.568 304.258 219.05 334.188 196.533 364.118C192.653 369.276 201.342 374.251 205.168 369.165C234.847 329.716 264.526 290.267 294.206 250.817C296.381 247.926 298.556 245.035 300.73 242.145C301.178 241.549 301.626 240.954 302.075 240.358C301.878 240.62 305.76 243.45 306.509 244.013C307.721 244.925 307.1 244.669 306.444 245.541C305.826 246.362 305.209 247.184 304.59 248.005C302.174 251.216 299.759 254.427 297.343 257.638C279.307 281.611 261.271 305.583 243.235 329.556C234.755 340.827 226.275 352.099 217.795 363.37C215.566 366.331 213.338 369.293 211.11 372.255C210.683 372.822 210.256 373.39 209.829 373.958C210.103 373.593 208.85 372.7 208.461 372.407C207.709 371.842 206.956 371.275 206.204 370.709C204.904 369.731 204.7 370.002 205.168 369.165C208.322 363.533 199.683 358.492 196.533 364.118Z" fill="white"/>
</svg>
