<svg width="512" height="512" viewBox="0 0 512 512" fill="none" xmlns="http://www.w3.org/2000/svg">
<g clip-path="url(#clip0_675_25)">
<path d="M296.133 345.045C260.91 359.401 227.849 355.812 197.333 332.779C178.308 318.421 166.411 299.017 162.307 275.881C157.624 249.489 161.887 224.258 177.734 201.681C185.991 189.918 196.593 180.877 209.261 173.397C211.321 173.495 212.661 173.506 213.889 173.139C226.762 169.289 240.024 168.267 253.133 170.222C278.567 174.013 299.987 185.663 315.731 206.352C333.925 230.26 340.244 257.125 333.589 286.579C328.761 307.947 318.071 325.906 300.826 339.758C299.015 341.212 297.686 343.268 296.133 345.045Z" fill="#F6CB43"/>
<path d="M438.05 141.119C434.878 144.899 430.502 144.766 426.119 145.109C423.724 145.296 420.806 145.946 419.167 147.492C405.557 160.33 389.667 163.742 371.876 159.371C363.76 157.377 356.64 153.432 350.708 147.342C349.424 146.023 347.074 145.134 345.197 145.101C333.721 144.899 322.224 144.637 310.764 145.107C300.386 145.533 289.18 133.57 288.724 123.221C288.115 109.425 296.52 100.164 305.987 97.5507C308.011 96.992 310.196 97.0158 311.828 96.8267C313.324 92.2298 314.796 87.7079 316.819 83.2928C325.974 80.5935 334.393 79.684 342.529 85.0726C343.299 85.5822 345.539 84.6368 346.629 83.7754C354.838 77.2878 364.202 73.3369 374.535 73.131C396.071 72.7019 411.547 82.6551 421.107 102C422.082 103.973 424.023 105.897 425.996 106.867C431.589 109.615 435.792 113.444 438.609 119.074C442.384 126.617 441.096 133.846 438.05 141.119Z" fill="#EFF4F6"/>
<path d="M215.137 429.046C210.95 430.364 206.809 432.614 202.569 432.819C191.449 433.356 180.284 432.883 169.143 433.107C167.111 433.147 164.548 434.035 163.175 435.449C145.385 453.762 112.624 453.841 94.7358 435.37C93.3736 433.964 90.7059 432.975 88.7494 433.128C76.5062 434.085 67.3062 424.414 65.108 413.615C62.7494 402.028 69.6911 390.219 80.2153 385.894C82.0635 385.135 83.6246 383.159 84.8066 381.401C87.4597 377.455 89.7912 373.293 92.9503 369.093C94.4363 368.759 95.3194 368.712 96.0014 368.318C115.636 356.962 134.238 358.827 152.094 372.408C153.111 373.181 155.584 373.104 156.784 372.403C165.832 367.122 179.111 367.514 186.113 376.81C189.587 381.422 191.855 386.942 195.166 392.952C194.262 392.723 194.731 392.872 195.212 392.959C212.455 396.088 220.606 410.064 214.828 426.489C214.573 427.216 215.018 428.188 215.137 429.046Z" fill="#EFF4F6"/>
<path d="M296.498 345.021C297.686 343.268 299.015 341.212 300.826 339.758C318.071 325.906 328.761 307.947 333.589 286.579C340.245 257.125 333.926 230.26 315.732 206.352C299.987 185.663 278.567 174.013 253.133 170.222C240.024 168.267 226.763 169.289 213.889 173.139C212.661 173.506 211.321 173.495 209.62 173.436C222.045 165.711 235.814 161.594 250.743 160.933C268.39 160.151 285.279 162.644 301.022 171C327.064 184.82 344.459 205.897 350.797 234.67C357.361 264.465 352.12 292.315 332.762 316.838C323.026 329.172 311.059 338.454 296.498 345.021Z" fill="#FAB13C"/>
<path d="M215.447 428.924C215.018 428.188 214.573 427.216 214.828 426.489C220.606 410.064 212.455 396.088 195.212 392.959C194.731 392.872 194.262 392.723 195.166 392.952C191.856 386.942 189.587 381.422 186.113 376.81C179.111 367.514 165.832 367.122 156.784 372.403C155.584 373.104 153.111 373.181 152.094 372.408C134.238 358.827 115.636 356.962 96.0015 368.318C95.3195 368.712 94.4363 368.759 93.2683 368.961C108.976 348.633 142.943 347.439 161.769 365.047C169.963 360.368 178.756 358.897 187.585 363.009C196.412 367.121 201.278 374.218 201.1 384.726C207.878 384.787 213.432 387.373 218.813 391.961C226.866 398.826 227.496 419.482 218.575 426.008C217.519 426.781 216.691 427.864 215.447 428.924Z" fill="#DEEAEE"/>
<path d="M438.401 141.066C441.095 133.846 442.384 126.617 438.609 119.074C435.792 113.444 431.588 109.615 425.996 106.867C424.023 105.897 422.082 103.973 421.107 101.999C411.547 82.6551 396.07 72.7019 374.535 73.131C364.202 73.3369 354.838 77.2878 346.629 83.7754C345.539 84.6368 343.299 85.5822 342.529 85.0725C334.393 79.684 325.973 80.5935 317.161 83.1352C324.051 72.0224 338.799 69.562 352.157 76.9553C368.55 63.2486 386.975 61.0059 406.113 69.2381C416.637 73.7647 424.661 82.0143 429.155 93.15C429.943 95.1025 432.061 96.9662 434.027 97.9167C441.788 101.671 447.599 107.193 448.863 115.843C450.336 125.917 448.166 135.057 438.401 141.066Z" fill="#DEEAEE"/>
<path d="M143.831 142.659C148.252 139.788 152.392 140.111 155.79 143.356C163.238 150.471 170.483 157.805 177.656 165.198C181.127 168.775 181.21 175.344 178.183 178.291C175.088 181.303 168.728 181.109 165.085 177.559C157.707 170.369 150.404 163.097 143.245 155.69C139.774 152.099 140.095 146.683 143.831 142.659Z" fill="#FAB03C"/>
<path d="M341.743 354.25C338.694 350.523 333.93 348.452 333.963 342.959C333.984 339.406 334.834 336.513 338.327 334.904C341.911 333.252 345.514 333.266 348.357 335.988C355.672 342.992 362.874 350.127 369.852 357.464C374.025 361.852 373.925 367.638 370.213 370.961C366.352 374.418 361.328 373.808 356.795 369.297C351.85 364.376 346.927 359.434 341.743 354.25Z" fill="#FAB03C"/>
<path d="M264.986 139.389C262.609 144.581 259.485 146.15 254.217 144.946C249.575 143.884 248.904 140.393 248.956 136.256C249.088 125.786 248.973 115.312 249.01 104.84C249.031 98.9658 251.128 96.9802 257.09 97.0001C262.949 97.0197 264.978 99.0437 264.992 105.038C265.019 116.341 264.998 127.645 264.986 139.389Z" fill="#FAB03C"/>
<path d="M114.017 265C110.365 265 107.208 265.07 104.055 264.984C98.9663 264.845 97.0235 262.629 97.0002 257.116C96.9765 251.493 98.8517 249.083 103.806 249.035C115.263 248.926 126.723 248.928 138.181 249.035C143.113 249.081 145.024 251.529 145 257.12C144.976 262.609 143.006 264.913 137.929 264.975C130.125 265.07 122.319 265 114.017 265Z" fill="#FAB03C"/>
<path d="M369.578 252.904C371.949 251.397 374.003 249.227 376.122 249.162C387.418 248.818 398.731 248.934 410.038 249.031C415.088 249.074 416.998 251.417 417 256.992C417.002 262.553 415.069 264.927 410.041 264.969C398.735 265.066 387.426 265.072 376.12 264.971C370.015 264.916 368.473 262.118 369.578 252.904Z" fill="#FAB03C"/>
<path d="M250.734 370.766C253.395 369.977 255.751 369.109 258.117 369.081C262.775 369.026 264.943 371.315 264.975 376.073C265.052 387.379 265.063 398.687 264.971 409.993C264.93 415.043 262.576 416.991 257.041 417C251.462 417.009 249.077 415.094 249.032 410.086C248.931 398.781 248.941 387.473 249.064 376.168C249.083 374.462 249.955 372.766 250.734 370.766Z" fill="#FAB03C"/>
</g>
<defs>
<clipPath id="clip0_675_25">
<rect width="512" height="512" fill="white"/>
</clipPath>
</defs>
</svg>
