<svg width="256" height="256" viewBox="0 0 256 256" fill="none" xmlns="http://www.w3.org/2000/svg">
<g clip-path="url(#clip0_689_36)">
<path d="M129.484 192.329C131.006 196.442 133.625 200.06 137.058 202.79C140.49 205.519 144.605 207.256 148.956 207.812C153.306 208.368 157.725 207.721 161.734 205.942C165.743 204.163 169.187 201.32 171.694 197.721C174.2 194.122 175.673 189.905 175.951 185.528C176.23 181.151 175.304 176.782 173.275 172.894C171.245 169.006 168.189 165.749 164.438 163.476C160.687 161.203 156.386 160.001 152 160H40M97.4845 63.6715C99.0057 59.558 101.625 55.94 105.058 53.2103C108.49 50.4806 112.605 48.7436 116.956 48.1878C121.306 47.632 125.725 48.2788 129.734 50.0579C133.743 51.837 137.187 54.6804 139.694 58.2793C142.2 61.8782 143.673 66.095 143.951 70.4718C144.23 74.8487 143.304 79.2182 141.275 83.106C139.245 86.9937 136.189 90.251 132.438 92.5242C128.687 94.7974 124.386 95.9995 120 96H24M185.484 95.6715C187.006 91.558 189.625 87.94 193.058 85.2103C196.49 82.4806 200.605 80.7436 204.956 80.1878C209.306 79.632 213.725 80.2788 217.734 82.0579C221.743 83.837 225.187 86.6804 227.694 90.2793C230.2 93.8782 231.673 98.095 231.951 102.472C232.23 106.849 231.304 111.218 229.275 115.106C227.245 118.994 224.189 122.251 220.438 124.524C216.687 126.797 212.386 127.999 208 128H32" stroke="white" stroke-width="8" stroke-linecap="round" stroke-linejoin="round"/>
</g>
<defs>
<clipPath id="clip0_689_36">
<rect width="256" height="256" fill="white"/>
</clipPath>
</defs>
</svg>
